<svg xmlns="http://www.w3.org/2000/svg" width="98.851" height="15.322" viewBox="0 0 98.851 15.322">
  <path id="パス_19" data-name="パス 19" d="M13.057-12.275H8.223V0H5V-12.275H.166v-2.441H13.057ZM27.126,0H23.718L22.6-3.193H16.814L15.7,0H12.439L18-14.717H21.57ZM21.794-5.479l-2.08-5.937-2.08,5.938Zm6.96,4.6V-3.994h.332A8.687,8.687,0,0,0,31.6-2.568a7.834,7.834,0,0,0,2.729.527,4.287,4.287,0,0,0,2.188-.488,1.508,1.508,0,0,0,.83-1.357,1.462,1.462,0,0,0-.4-1.074,3.213,3.213,0,0,0-1.5-.664q-.791-.146-2.7-.576a5.5,5.5,0,0,1-2.91-1.509,3.9,3.9,0,0,1-1-2.759,3.867,3.867,0,0,1,1.709-3.257,7.237,7.237,0,0,1,4.395-1.255,13.277,13.277,0,0,1,5.137,1v2.979H39.76a7.27,7.27,0,0,0-4.707-1.66,4.122,4.122,0,0,0-2.075.469,1.427,1.427,0,0,0-.815,1.279,1.4,1.4,0,0,0,.464,1.1,3.742,3.742,0,0,0,1.587.674q1.123.205,2.5.542a7.407,7.407,0,0,1,2.061.757,4.341,4.341,0,0,1,1.084.913,3.394,3.394,0,0,1,.605,1.1,4.243,4.243,0,0,1,.2,1.338,4.108,4.108,0,0,1-1.753,3.457A7.576,7.576,0,0,1,34.272.273,13.956,13.956,0,0,1,28.754-.879ZM56.906,0H52.922L48.078-6.094l-1.094,1.24V0h-3.2V-14.717H47v6.992l5.869-6.992h3.75L50.607-7.881Zm1.931-.615V-3.389h.313a8.508,8.508,0,0,0,4.189,1.279,4,4,0,0,0,2.412-.64,2.177,2.177,0,0,0,.869-1.87,1.806,1.806,0,0,0-.679-1.509,4.982,4.982,0,0,0-2.808-.532h-.859V-8.877h.811q3.281,0,3.281-2a1.407,1.407,0,0,0-.7-1.274,3.824,3.824,0,0,0-2-.435,9.041,9.041,0,0,0-4.1,1.25h-.293v-2.744a13.609,13.609,0,0,1,4.775-.928,7.032,7.032,0,0,1,4.106,1,3.1,3.1,0,0,1,1.392,2.646,3.255,3.255,0,0,1-.771,2.153,3.751,3.751,0,0,1-2.061,1.235v.137a4.177,4.177,0,0,1,2.334,1.147,3.134,3.134,0,0,1,.859,2.28A4.15,4.15,0,0,1,68.261-.977,7,7,0,0,1,63.818.313,13.022,13.022,0,0,1,58.837-.615Zm14.255,0V-3.389H73.4a8.508,8.508,0,0,0,4.189,1.279,4,4,0,0,0,2.412-.64,2.177,2.177,0,0,0,.869-1.87A1.806,1.806,0,0,0,80.2-6.128a4.982,4.982,0,0,0-2.808-.532H76.53V-8.877h.811q3.281,0,3.281-2a1.407,1.407,0,0,0-.7-1.274,3.824,3.824,0,0,0-2-.435,9.041,9.041,0,0,0-4.1,1.25h-.293v-2.744A13.609,13.609,0,0,1,78.3-15.01a7.032,7.032,0,0,1,4.106,1A3.1,3.1,0,0,1,83.8-11.367a3.255,3.255,0,0,1-.771,2.153,3.751,3.751,0,0,1-2.061,1.235v.137A4.177,4.177,0,0,1,83.3-6.694a3.134,3.134,0,0,1,.859,2.28A4.15,4.15,0,0,1,82.516-.977,7,7,0,0,1,78.073.313,13.021,13.021,0,0,1,73.092-.615ZM99.017-3.662h-2.09V.029H93.841V-3.662H86.732V-6.25L93.7-14.717h3.223v8.789h2.09ZM93.841-5.928V-11.7L89.076-5.928Z" transform="translate(-0.166 15.01)" fill="#25282a"/>
</svg>
